/* XPM */
static char * kpackage_xpm[] = {
"32 32 3 1",
" 	c None",
".	c #000000000000",
"X	c #FFFF00000000",
"                                ",
"                                ",
"                                ",
"                                ",
"                                ",
"                                ",
"                                ",
"                                ",
"                                ",
"   ...................          ",
"   ...XXXXXXXXXXXXXXX...        ",
"   .X..XXXXXXXXXXXXXXXX..       ",
"   .XX..XXXXXXXXXXXXXXXX..      ",
"   .XXX...................      ",
"   .XXXX.XXXXXXXXXXXXXXXX.      ",
"   .XXXX.XXXXXXXXXXXXXXXX.      ",
"   .XXXX.XXXXXXXXXXXXXXXX.      ",
"   .XXXX.XXXXXXXXXXXXXXXX.      ",
"   .XXXX.XXXXXXXXXXXXXXXX.      ",
"   .XXXX.XXXXXXXXXXXXXXXX.      ",
"   .XXXX.XXXXXXXXXXXXXXXX.      ",
"   .XXXX.XXXXXXXXXXXXXXXX.      ",
"   .XXXX.XXXXXXXXXXXXXXXX.      ",
"   .XXXX.XXXXXXXXXXXXXXXX.      ",
"   ..XXX.XXXXXXXXXXXXXXXX.      ",
"    ..XX.XXXXXXXXXXXXXXXX.      ",
"     ..X.XXXXXXXXXXXXXXXX.      ",
"      ....................      ",
"                                ",
"                                ",
"                                ",
"                                "};
