/* XPM */
static char * kiss_xpm[] = {
"16 16 24 1",
" 	c None",
".	c #C05800",
"+	c #150900",
"@	c #803A00",
"#	c #F8ECE3",
"$	c #D58F55",
"%	c #FFFFFF",
"&	c #000000",
"*	c #FF0000",
"=	c #552600",
"-	c #EAC7AA",
";	c #FFFFC0",
">	c #D58F40",
",	c #954400",
"'	c #C76A1D",
")	c #F8EC00",
"!	c #CE7D39",
"~	c #AA4D00",
"{	c #C0C000",
"]	c #401D00",
"^	c #EAC780",
"/	c #F8ECAA",
"(	c #EA1D00",
"_	c #F11300",
"   .... ....    ",
"  .....+.....   ",
"   ...@#..$%&&  ",
"  *...$$.$%%%%& ",
" **......=&&%&  ",
"&&&@......-%&&  ",
"  &$.......#%%& ",
" &;>..,$...'#&  ",
" &)...!%$...~   ",
"  @....-{!....  ",
"   ]^^^{%/]((_  ",
"   &&;;;;& **   ",
"     &&;&  *    ",
"       &        ",
"                ",
"                "};
