/* XPM */
static char * slack_xpm[] = {
"16 16 28 1",
" 	c None",
".	c #0000C6",
"+	c #0000FF",
"@	c #0000AA",
"#	c #00008D",
"$	c #1D1DFF",
"%	c #000071",
"&	c #000000",
"*	c #FF0000",
"=	c #0000E2",
"-	c #C7C7FF",
";	c #E3E3FF",
">	c #7272FF",
",	c #FFFFFF",
"'	c #8E8EFF",
")	c #FFFFC0",
"!	c #AAAAD5",
"~	c #000038",
"{	c #5555FF",
"]	c #5555EA",
"^	c #3939FF",
"/	c #FFFF00",
"(	c #000055",
"_	c #808080",
":	c #E3E3C6",
"<	c #AAAAFF",
"[	c #808055",
"}	c #C0C000",
"                ",
"       .++@#    ",
"      ++$@$+%&  ",
"  *  @++=-;>-,& ",
" ** &'++++=%,&  ",
"&&&&,,@+++++%&  ",
"  &,)#!~{+++{,& ",
" &))&]=-,^++'&  ",
" &/)&(+++++{&   ",
"  &_&):<[<-&    ",
"   &)))},)&***  ",
"   &&))))& **   ",
"     &&)&  *    ",
"       &        ",
"                ",
"                "};
